<svg width="40" height="40" xmlns="http://www.w3.org/2000/svg">
 <g id="Layer_1">
  <title>Layer 1</title>
  <g stroke="null">
   <path stroke="null" fill-rule="evenodd" fill="#33465b" d="m4.16247,12.72695c4.00076,-2.6664 9.68156,-1.15556 11.80395,3.02102c1.81347,3.3859 0.73837,7.53102 -2.21543,9.93088l1.98697,1.00491c0.42547,0.21522 0.52083,0.7536 0.19204,1.08835c-1.24595,1.26946 -3.42364,1.0751 -4.39776,-0.39269l-0.19403,-0.2927c-1.29231,0.54202 -2.71276,0.83373 -4.09943,0.64996c-3.19319,-0.42349 -4.36134,-2.25484 -4.39246,-3.23425c-0.04337,-1.31085 0.99762,-1.65024 1.69791,-1.88532c1.36184,-0.45726 2.72567,-0.15496 3.17002,-0.13575c0.3225,0.01391 0.64764,0.00993 0.97114,-0.0106l-0.10728,-0.19668c-0.83803,-1.5413 0.09271,-3.41669 1.88069,-3.7872c0.47116,-0.09768 0.9122,0.25396 0.89134,0.71055l-0.1235,2.68329c1.34694,-0.60361 2.31708,-1.67308 2.33232,-3.2859c0.05265,-2.51542 -1.92936,-4.75602 -4.55835,-5.26095c-2.48065,-0.4705 -4.3971,0.51653 -5.76953,2.19027c-0.95855,1.16881 -1.23768,2.6674 -0.33111,3.87329l0.83869,0.99796c0.18972,0.2523 0.1629,0.40594 -0.12615,0.60328c-0.28939,0.19734 -1.08835,0.71453 -1.56183,0.71453c-0.2331,0 -0.46852,-0.41984 -0.47249,-0.42779c-1.42906,-3.00281 -0.29667,-6.66451 2.58429,-8.55844zm15.97325,0.95756c3.96666,-3.99315 10.84507,-2.51409 13.16248,2.53495c1.43336,2.97036 0.84896,6.76914 -1.53236,9.09517c-2.32636,2.38099 -6.12481,2.96605 -9.0955,1.53203c-5.04805,-2.31742 -6.52777,-9.19549 -2.53462,-13.16215zm17.2341,-1.91578c0.76486,0.01788 1.37509,0.65327 1.39363,1.42939l0.27482,12.3473c0.02152,0.96352 -0.72281,1.76248 -1.66216,1.78466c-0.93935,0.02185 -1.71844,-0.74168 -1.73963,-1.7052a2.30516,2.30516 0 0 1 0,-0.07947l0.27482,-12.3473c0.01788,-0.8079 0.67082,-1.44793 1.45852,-1.42939zm-11.89434,1.86678c-3.03592,-0.20264 -5.59173,2.35284 -5.38876,5.38876c0.25826,4.51729 5.83112,6.939 9.11338,3.72495c3.21471,-3.28358 0.79267,-8.85578 -3.72462,-9.11404l0,0.00033z"/>
  </g>
 </g>

</svg>